<?xml version="1.0" standalone="no"?>
<!DOCTYPE svg PUBLIC "-//W3C//DTD SVG 20010904//EN"
 "http://www.w3.org/TR/2001/REC-SVG-20010904/DTD/svg10.dtd">
<svg version="1.0" xmlns="http://www.w3.org/2000/svg"
 width="443.000000pt" height="488.000000pt" viewBox="0 0 443.000000 488.000000"
 preserveAspectRatio="xMidYMid meet">
<metadata>
Created by potrace 1.16, written by Peter Selinger 2001-2019
</metadata>
<g transform="translate(0.000000,488.000000) scale(0.100000,-0.100000)"
fill="#000000" stroke="none">
<path d="M1366 4673 c-1 -2 -225 -3 -497 -3 -272 -1 -510 -4 -529 -8 l-35 -8
1 -99 c6 -543 1 -3949 -6 -4105 -4 -113 -6 -208 -4 -211 11 -19 155 -22 999
-21 1166 2 1300 5 1469 38 279 55 512 155 706 306 129 99 286 300 370 473 56
116 121 313 124 378 1 31 0 32 -79 53 -44 12 -138 40 -210 63 -144 45 -187 55
-355 77 -63 8 -131 17 -151 20 -36 6 -36 6 -43 -37 -19 -118 -195 -331 -330
-398 -164 -81 -90 -75 -843 -77 l-673 -2 1 439 1 439 925 0 926 0 -7 31 c-3
17 -6 211 -6 430 l0 399 -926 -2 -927 -3 7 119 c3 66 6 292 6 504 l0 385 578
-6 c591 -6 696 -12 767 -47 22 -10 65 -30 95 -43 52 -23 194 -128 232 -172 71
-80 127 -191 144 -280 4 -22 10 -42 14 -45 5 -3 70 -2 147 2 128 6 373 47 413
68 52 28 237 60 280 49 26 -7 16 95 -20 206 -59 184 -165 391 -271 532 -166
221 -446 417 -713 498 -194 59 -184 58 -909 59 -368 1 -670 0 -671 -1z"/>
<path d="M3712 2734 c-57 -28 -147 -120 -171 -174 -24 -55 -21 -203 5 -260 53
-113 164 -189 294 -197 92 -7 166 23 242 95 74 70 98 130 98 245 0 81 -1 83
-45 148 -102 149 -286 212 -423 143z"/>
</g>
</svg>
